<svg xmlns="http://www.w3.org/2000/svg" id="social-insta" width="30" height="30" viewBox="0 0 30 30">
    <defs>
        <style>
            .cls-1{fill:#f7f7f7}
        </style>
    </defs>
    <g id="Group_14" transform="translate(5.797 5.734)">
        <g id="Group_13">
            <path id="Path_15" d="M110.533 100.2a9.236 9.236 0 0 0-8 13.851.491.491 0 1 0 .85-.492 8.263 8.263 0 1 1 1.156 1.547.491.491 0 1 0-.713.676 9.151 9.151 0 0 0 6.706 2.885 9.234 9.234 0 1 0 0-18.468z" class="cls-1" transform="translate(-101.299 -100.198)"/>
        </g>
    </g>
    <g id="Group_16" transform="translate(9.072 9.009)">
        <g id="Group_15">
            <path id="Path_16" d="M162.313 155.252a5.96 5.96 0 1 0 5.96 5.96 5.966 5.966 0 0 0-5.96-5.96zm0 10.937a4.977 4.977 0 1 1 4.977-4.977 4.983 4.983 0 0 1-4.977 4.977z" class="cls-1" transform="translate(-156.353 -155.252)"/>
        </g>
    </g>
    <g id="Group_18" transform="translate(21.108 4.569)">
        <g id="Group_17">
            <path id="Path_17" d="M363.314 78.176a2.161 2.161 0 1 0 2.161 2.161 2.164 2.164 0 0 0-2.161-2.161zm0 3.34a1.179 1.179 0 1 1 1.179-1.179 1.18 1.18 0 0 1-1.179 1.179z" class="cls-1" transform="translate(-361.153 -78.176)"/>
        </g>
    </g>
    <g id="Group_20">
        <g id="Group_19">
            <path id="Path_18" fill="#d94423" d="M23.323 0H6.677A6.677 6.677 0 0 0 0 6.677v16.646A6.677 6.677 0 0 0 6.677 30h16.646A6.677 6.677 0 0 0 30 23.323V6.677A6.677 6.677 0 0 0 23.323 0zm5.71 23.323a5.71 5.71 0 0 1-5.71 5.71H6.677a5.71 5.71 0 0 1-5.71-5.71V6.677A5.71 5.71 0 0 1 6.677.968h16.646a5.71 5.71 0 0 1 5.71 5.71v16.645z"/>
        </g>
    </g>
    <g id="Group_22" transform="translate(2.292 2.292)">
        <g id="Group_21">
            <path id="Path_19" d="M59.353 38.538H43.139a4.6 4.6 0 0 0-4.6 4.6v16.215a4.6 4.6 0 0 0 4.6 4.6h16.214a4.6 4.6 0 0 0 4.6-4.6V43.139a4.6 4.6 0 0 0-4.6-4.601zm3.635 20.815a3.635 3.635 0 0 1-3.635 3.635H43.139a3.635 3.635 0 0 1-3.639-3.635V43.139a3.635 3.635 0 0 1 3.639-3.639h16.214a3.635 3.635 0 0 1 3.635 3.635v16.218z" class="cls-1" transform="translate(-38.538 -38.538)"/>
        </g>
    </g>
</svg>
