<svg xmlns="http://www.w3.org/2000/svg" width="30" height="30" viewBox="0 0 30 30">
    <g>
        <g>
            <g>
                <path fill="#d94423" d="M28.748 8.991a14.948 14.948 0 0 0-3.4-4.853.47.47 0 1 0-.648.68 14.03 14.03 0 1 1-1.8-1.455.47.47 0 1 0 .528-.777 15 15 0 0 0-19.03 23.02 15 15 0 0 0 24.35-16.615z"/>
            </g>
        </g>
        <g>
            <g>
                <path fill="#f7f7f7" d="M108.566 107.876l-10.55 4.911a.549.549 0 0 0 .463.995l6.508-3.03-3.164 2.561-7.261 5.878-3.971-1.737 5.565-2.59a.549.549 0 0 0-.463-.995l-5.99 2.789a.885.885 0 0 0 .019 1.614l4.434 1.94 1.3 7.792a.553.553 0 0 0 1 .21l3.684-5.623 6.967 3.251a.894.894 0 0 0 1.258-.75l.982-16.686v-.047a.554.554 0 0 0-.781-.483zm-12.475 17.27l-.849-5.093 8.647-7-6.618 7.42a.554.554 0 0 0-.124.238zm1.165-.157l.8-3.368 1.076.5zm2.485-3.794l-1.161-.542 5.711-6.4-.826 1.261zm7.545 3.521l-6.541-3.052 7.383-11.269z" transform="translate(4.538 4.8) translate(-89.192 -107.827)"/>
            </g>
        </g>
    </g>
</svg>
