<svg xmlns="http://www.w3.org/2000/svg" width="25" height="25" viewBox="0 0 25 25">
    <path fill="#f7f7f7" d="M14.5 2A12.5 12.5 0 1 0 27 14.5 12.5 12.5 0 0 0 14.5 2zM12 19.5a5 5 0 0 1-.176-10 4.9 4.9 0 0 1 2.534.6.938.938 0 0 1 .188 1.5.942.942 0 0 1-1.092.139 3.058 3.058 0 0 0-2.173-.286 3.125 3.125 0 1 0 3.783 3.666h-2.127a.938.938 0 0 1-.937-.932.938.938 0 0 1 .938-.937h2.774A1.273 1.273 0 0 1 17 14.487v.013a5 5 0 0 1-5 5zm10-5v1.25a.625.625 0 0 1-.625.625.625.625 0 0 1-.625-.625V14.5H19.5a.625.625 0 0 1-.625-.625.625.625 0 0 1 .625-.625h1.25V12a.625.625 0 0 1 .625-.625A.625.625 0 0 1 22 12v1.25h1.25a.625.625 0 0 1 .625.625.625.625 0 0 1-.625.625z" transform="translate(-2 -2)"/>
</svg>
