<svg xmlns="http://www.w3.org/2000/svg" width="26.164" height="13.848" viewBox="0 0 26.164 13.848">
    <defs>
        <style>
            .cls-1{fill:#f7f7f7}
        </style>
    </defs>
    <g id="joystick" transform="translate(0 -120.502)">
        <g id="Group_26" transform="translate(0 120.502)">
            <g id="Group_25">
                <path id="Path_22" d="M26.025 129.588l-1.669-5.959a4.281 4.281 0 0 0-7.636-1.293.012.012 0 0 1-.007 0H9.47a4.281 4.281 0 0 0-7.635 1.293l-1.669 5.96a3.614 3.614 0 0 0 2.047 4.521 3.855 3.855 0 0 0 1.355.241 4 4 0 0 0 3.593-2.139l.8-1.676a2.66 2.66 0 0 0 4.666-.773h.935a2.66 2.66 0 0 0 4.666.772l.8 1.676a3.749 3.749 0 0 0 6.995-2.623zm-1.227 2.22a2.672 2.672 0 0 1-4.8-.061l-1.119-2.337a.7.7 0 0 0-1.3.067 1.583 1.583 0 0 1-3.045-.222.7.7 0 0 0-.69-.569h-1.507a.7.7 0 0 0-.69.569 1.584 1.584 0 0 1-3.046.222.7.7 0 0 0-1.3-.066l-1.117 2.337a2.975 2.975 0 0 1-3.6 1.353 2.531 2.531 0 0 1-1.384-3.223l1.669-5.96a3.214 3.214 0 0 1 3.081-2.344 3.222 3.222 0 0 1 2.633 1.375 1.085 1.085 0 0 0 .891.464h7.236a1.084 1.084 0 0 0 .891-.464 3.2 3.2 0 0 1 5.715.968l1.669 5.959a2.667 2.667 0 0 1-.185 1.932z" class="cls-1" transform="translate(0 -120.502)"/>
            </g>
        </g>
        <g id="Group_28" transform="translate(19.605 123.231)">
            <g id="Group_27">
                <circle id="Ellipse_1" cx=".68" cy=".68" r=".68" class="cls-1"/>
            </g>
        </g>
        <g id="Group_30" transform="translate(19.605 126.443)">
            <g id="Group_29">
                <circle id="Ellipse_2" cx=".68" cy=".68" r=".68" class="cls-1"/>
            </g>
        </g>
        <g id="Group_32" transform="translate(17.999 124.837)">
            <g id="Group_31">
                <circle id="Ellipse_3" cx=".68" cy=".68" r=".68" class="cls-1"/>
            </g>
        </g>
        <g id="Group_34" transform="translate(21.211 124.837)">
            <g id="Group_33">
                <circle id="Ellipse_4" cx=".68" cy=".68" r=".68" class="cls-1"/>
            </g>
        </g>
        <g id="Group_36" transform="translate(3.999 123.487)">
            <g id="Group_35">
                <path id="Path_23" d="M81.787 180.406h-.953v-.953a.538.538 0 1 0-1.077 0v.953H78.8a.538.538 0 1 0 0 1.077h.953v.953a.538.538 0 1 0 1.077 0v-.953h.953a.538.538 0 0 0 0-1.077z" class="cls-1" transform="translate(-78.266 -178.914)"/>
            </g>
        </g>
        <g id="Group_38" transform="translate(10.73 124.979)">
            <g id="Group_37">
                <path id="Path_24" d="M211.1 208.1h-.589a.538.538 0 0 0 0 1.077h.589a.538.538 0 0 0 0-1.077z" class="cls-1" transform="translate(-209.974 -208.102)"/>
            </g>
        </g>
        <g id="Group_40" transform="translate(13.794 124.979)">
            <g id="Group_39">
                <path id="Path_25" d="M271.061 208.1h-.589a.538.538 0 0 0 0 1.077h.589a.538.538 0 0 0 0-1.077z" class="cls-1" transform="translate(-269.934 -208.102)"/>
            </g>
        </g>
        <g id="Group_42" transform="translate(9.009 127.863)">
            <g id="Group_41">
                <path id="Path_26" d="M177.393 264.538a1.084 1.084 0 1 0 1.084 1.084 1.085 1.085 0 0 0-1.084-1.084zm0 1.36a.276.276 0 1 1 .276-.276.277.277 0 0 1-.276.278z" class="cls-1" transform="translate(-176.309 -264.538)"/>
            </g>
        </g>
        <g id="Group_44" transform="translate(15.009 127.863)">
            <g id="Group_43">
                <path id="Path_27" d="M294.8 264.538a1.084 1.084 0 1 0 1.084 1.084 1.085 1.085 0 0 0-1.084-1.084zm0 1.36a.276.276 0 1 1 .276-.276.277.277 0 0 1-.276.278z" class="cls-1" transform="translate(-293.716 -264.538)"/>
            </g>
        </g>
    </g>
</svg>
