<svg xmlns="http://www.w3.org/2000/svg" width="26.192" height="13.8" viewBox="0 0 26.192 13.8">
    <g>
        <path fill="#f7f7f7" d="M24.818 69.346l-2.13-1.446a2.07 2.07 0 0 0 .96-1.74v-.86a2.831 2.831 0 0 0-.846-2.007 2.66 2.66 0 0 0-1.93-.78 2.738 2.738 0 0 0-2.672 2.725v.922a2.07 2.07 0 0 0 .96 1.74l-2.1 1.426-1.714-1.163a2.828 2.828 0 0 0 1.524-2.5v-1.241a3.924 3.924 0 0 0-1.17-2.783 3.687 3.687 0 0 0-2.671-1.079 3.791 3.791 0 0 0-3.7 3.773v1.33a2.829 2.829 0 0 0 1.525 2.5l-1.719 1.163L7.034 67.9a2.07 2.07 0 0 0 .96-1.74v-.922a2.738 2.738 0 0 0-2.674-2.725 2.673 2.673 0 0 0-1.93.779 2.831 2.831 0 0 0-.846 2.008v.859A2.07 2.07 0 0 0 3.5 67.9l-2.13 1.447A3.131 3.131 0 0 0 0 71.939a.358.358 0 0 0 .358.358H6A4.361 4.361 0 0 0 5.653 74a.358.358 0 0 0 .358.358h14.17a.358.358 0 0 0 .358-.358 4.361 4.361 0 0 0-.348-1.7h5.643a.358.358 0 0 0 .358-.358 3.131 3.131 0 0 0-1.374-2.596zM.743 71.581a2.415 2.415 0 0 1 1.033-1.641l2.678-1.817a.358.358 0 0 0-.127-.647 1.348 1.348 0 0 1-1.066-1.315V65.3a2.111 2.111 0 0 1 .632-1.5 1.979 1.979 0 0 1 1.415-.574 2.018 2.018 0 0 1 1.97 2.008v.922a1.348 1.348 0 0 1-1.066 1.315.358.358 0 0 0-.127.647L8.5 69.76l-.932.632a4.361 4.361 0 0 0-1.179 1.19zm5.644 2.062a3.642 3.642 0 0 1 .491-1.5l.005-.008a3.645 3.645 0 0 1 1.085-1.15l3.863-2.623a.358.358 0 0 0-.127-.647 2.105 2.105 0 0 1-1.664-2.052v-1.33a3.071 3.071 0 0 1 3-3.056 2.99 2.99 0 0 1 2.156.874 3.2 3.2 0 0 1 .959 2.271v1.24a2.105 2.105 0 0 1-1.663 2.052.358.358 0 0 0-.127.647l3.863 2.622a3.645 3.645 0 0 1 1.085 1.151v.008a3.641 3.641 0 0 1 .491 1.5zm13.419-2.062a4.361 4.361 0 0 0-1.178-1.19l-.932-.632 2.413-1.637a.358.358 0 0 0-.127-.647 1.349 1.349 0 0 1-1.066-1.315v-.923a2.018 2.018 0 0 1 1.97-2.008 1.973 1.973 0 0 1 1.414.571 2.111 2.111 0 0 1 .632 1.5v.859a1.348 1.348 0 0 1-1.066 1.315.358.358 0 0 0-.127.647l2.678 1.819a2.415 2.415 0 0 1 1.033 1.642z" transform="translate(0 -60.559)"/>
    </g>
</svg>
