<svg id="person" xmlns="http://www.w3.org/2000/svg" width="34" height="34" viewBox="0 0 34 34">
  <defs>
    <style>
      .cls-1 {
        fill: #f7f7f7;
      }

      .cls-2 {
        fill: #d02236;
      }
    </style>
  </defs>
  <path id="Path_20" data-name="Path 20" class="cls-1" d="M13.177,14.354A4.677,4.677,0,1,0,8.5,9.677,4.683,4.683,0,0,0,13.177,14.354Zm0-8.018A3.341,3.341,0,1,1,9.836,9.677,3.345,3.345,0,0,1,13.177,6.336Z" transform="translate(3.978 1.885)"/>
  <path id="Path_21" data-name="Path 21" class="cls-1" d="M19.142,14.67A13.5,13.5,0,0,0,13,13a13.506,13.506,0,0,0-6.142,1.67A3.511,3.511,0,0,0,5,17.789v.534A1.658,1.658,0,0,0,6.633,20H19.367A1.658,1.658,0,0,0,21,18.323v-.534A3.511,3.511,0,0,0,19.142,14.67Zm.715,3.653a.5.5,0,0,1-.49.51H6.633a.5.5,0,0,1-.49-.51v-.534a2.346,2.346,0,0,1,1.241-2.084A12.389,12.389,0,0,1,13,14.167a12.389,12.389,0,0,1,5.617,1.539,2.346,2.346,0,0,1,1.241,2.084Z" transform="translate(4 5.253)"/>
  <path id="Path_22" data-name="Path 22" class="cls-2" d="M17,0A17,17,0,1,0,34,17,17.019,17.019,0,0,0,17,0Zm0,32.583A15.583,15.583,0,1,1,32.583,17,15.6,15.6,0,0,1,17,32.583Z"/>
</svg>
