<svg xmlns="http://www.w3.org/2000/svg" id="social-facebook" width="30" height="30" viewBox="0 0 30 30">
    <defs>
        <style>
            .cls-1{fill:#f7f7f7}
        </style>
    </defs>
    <path id="Path_11" d="M192.318 139.384h3.035a.469.469 0 0 0 .471-.466v-6.754h1.576a.47.47 0 0 0 .469-.418l.266-2.551a.463.463 0 0 0-.119-.36.474.474 0 0 0-.35-.154h-1.842v-1.033c0-.213.068-.229.173-.229h1.631a.469.469 0 0 0 .471-.466v-2.477a.469.469 0 0 0-.47-.466l-2.249-.01a3.333 3.333 0 0 0-2.846 1.261 3.806 3.806 0 0 0-.687 2.234v1.185h-.972a.469.469 0 0 0-.471.466v2.554a.469.469 0 0 0 .471.466h.972v6.754a.469.469 0 0 0 .471.464zm-.972-8.153v-1.618h.972a.469.469 0 0 0 .471-.466V127.5a2.933 2.933 0 0 1 .5-1.682 2.439 2.439 0 0 1 2.085-.881l1.778.007v1.546H196a1.079 1.079 0 0 0-1.116 1.162v1.5a.469.469 0 0 0 .471.466h1.791l-.169 1.618h-1.623a.469.469 0 0 0-.471.466v6.754h-2.092V131.7a.469.469 0 0 0-.471-.466z" class="cls-1" transform="translate(-179.269 -116.692)"/>
    <path id="Path_12" fill="#d94423" d="M25.607 4.394A15 15 0 1 0 4.394 25.607 15 15 0 0 0 25.607 4.394zm-.663 20.551A14.063 14.063 0 1 1 5.056 5.057a14.063 14.063 0 0 1 19.888 19.887z"/>
    <path id="Path_13" d="M123.217 112.183a.471.471 0 0 0-.732.594 12.259 12.259 0 0 1-17.7 16.855.471.471 0 1 0-.629.7 13.2 13.2 0 0 0 19.057-18.151z" class="cls-1" transform="translate(-98.047 -105.581)"/>
    <path id="Path_14" d="M32.943 45.2a12.258 12.258 0 0 1 20.43-9.137.471.471 0 1 0 .629-.7 13.2 13.2 0 0 0-19.057 18.15.471.471 0 1 0 .732-.594 12.285 12.285 0 0 1-2.734-7.719z" class="cls-1" transform="translate(-30.114 -30.114)"/>
</svg>
