<svg xmlns="http://www.w3.org/2000/svg" width="14" height="14" viewBox="0 0 14 14">
  <defs>
    <style>
      .cls-1 {
        fill: #f7f7f7;
      }
    </style>
  </defs>
  <path id="star-svgrepo-com" class="cls-1" d="M13.979,10.9a.438.438,0,0,0-.348-.308L9.316,9.938,7.387,5.84a.423.423,0,0,0-.774,0l-1.929,4.1-4.314.657a.438.438,0,0,0-.348.308.467.467,0,0,0,.109.464l3.122,3.189-.737,4.5a.463.463,0,0,0,.172.442.415.415,0,0,0,.454.034L7,17.41l3.859,2.126a.415.415,0,0,0,.2.052h0a.442.442,0,0,0,.432-.452.477.477,0,0,0-.013-.11l-.731-4.47,3.122-3.189A.467.467,0,0,0,13.979,10.9Zm-4,3.171a.466.466,0,0,0-.124.4l.628,3.834L7.2,16.5a.414.414,0,0,0-.4,0l-3.286,1.81.628-3.834a.466.466,0,0,0-.124-.4L1.359,11.358l3.674-.56a.433.433,0,0,0,.325-.247L7,7.062l1.643,3.489a.434.434,0,0,0,.325.247l3.673.56Z" transform="translate(0 -5.588)"/>
</svg>
