<svg xmlns="http://www.w3.org/2000/svg" width="14" height="14" viewBox="0 0 14 14">
  <defs>
    <style>
      .cls-1 {
        fill: #ff3;
      }
    </style>
  </defs>
  <path id="star-svgrepo-com_filled_" data-name="star-svgrepo-com (filled)" class="cls-1" d="M13.988,6.646a.255.255,0,0,0-.2-.179L9.252,5.776,7.225,1.465a.245.245,0,0,0-.449,0L4.748,5.776.215,6.467a.255.255,0,0,0-.2.179.272.272,0,0,0,.063.269l3.281,3.356L2.582,15.01a.27.27,0,0,0,.1.257.239.239,0,0,0,.264.02L7,13.05l4.055,2.237a.241.241,0,0,0,.264-.02.269.269,0,0,0,.1-.257l-.774-4.738,3.281-3.356A.272.272,0,0,0,13.988,6.646Z" transform="translate(0 -1.318)"/>
</svg>
